# xmcd
#
# Track frame offsets: 
#        182
#        12440
#        27005
#        37922
#        50267
#        68202
#        80815
#        93292
#        105802
#        115002
#        124932
#        140982
#        156210
#        170895
#
# Disc length: 2460 seconds
#
# Revision: 0
# Processed by: cddbd v1.4PL0 Copyright (c) Steve Scherf et al.
# Submitted via: ExactAudioCopy v0.90b4
#
DISCID=b5099a0e
DTITLE=Calamity Jane - Nejdelsi den
DYEAR=1994
DGENRE=Country
TTITLE0=Bitva o New Orleans
TTITLE1=Sto zelenych baretu
TTITLE2=Johny az pujde zpet
TTITLE3=Domek nad rekou
TTITLE4=Pulnocni nalet
TTITLE5=Socha svobody
TTITLE6=Most pres reku Kwai
TTITLE7=Hospoda "kdesi v Anglii"
TTITLE8=Kazda holka mava
TTITLE9=Posledni vecerka
TTITLE10=Memfiska kraska
TTITLE11=Alamo
TTITLE12=Spatny misto pro pristani
TTITLE13=Nejdelsi den
EXTD=
EXTT0=
EXTT1=
EXTT2=
EXTT3=
EXTT4=
EXTT5=
EXTT6=
EXTT7=
EXTT8=
EXTT9=
EXTT10=
EXTT11=
EXTT12=
EXTT13=
PLAYORDER=
